# This file uses centimeters as units for non-parametric coordinates.

mtllib stand.mtl
g default
v -40.000000 -0.850937 20.000000
v 40.000000 -0.850937 20.000000
v -40.000000 0.850937 20.000000
v 40.000000 0.850937 20.000000
v -40.000000 0.850937 -20.000000
v 40.000000 0.850937 -20.000000
v -40.000000 -0.850937 -20.000000
v 40.000000 -0.850937 -20.000000
v -40.000000 38.849400 20.855618
v 40.000000 38.849400 20.855618
v -40.000000 53.201073 15.398968
v 40.000000 53.201073 15.398968
v -40.000000 38.985504 -20.874451
v 40.000000 38.985504 -20.874451
v -40.000000 24.633823 -19.994184
v 40.000000 24.633823 -19.994184
v -37.000000 52.134907 12.594811
v 37.000000 52.134907 12.594811
v 37.000000 40.051666 -18.070293
v -37.000000 40.051666 -18.070293
v -37.000000 40.810883 16.900318
v 37.000000 40.810883 16.900318
v 37.000000 28.727642 -13.764786
v -37.000000 28.727642 -13.764786
v -40.000000 0.000000 -20.000000
v 40.000000 0.000000 -20.000000
v 40.000000 0.000000 20.000000
v -40.000000 0.000000 20.000000
v 38.360966 -1.639038 -18.360966
v 41.639034 -1.639038 -18.360966
v 38.360966 40.478390 -18.360966
v 41.639034 40.478390 -18.360966
v 38.360966 40.478390 -21.639034
v 41.639034 40.478390 -21.639034
v 38.360966 -1.639034 -21.639034
v 41.639034 -1.639034 -21.639034
v -41.639034 -1.639038 -18.360966
v -38.360966 -1.639038 -18.360966
v -41.639034 40.478390 -18.360966
v -38.360966 40.478390 -18.360966
v -41.639034 40.478390 -21.639034
v -38.360966 40.478390 -21.639034
v -41.639034 -1.639034 -21.639034
v -38.360966 -1.639034 -21.639034
v -41.639034 -1.639038 21.639034
v -38.360966 -1.639038 21.639034
v -41.639034 40.478390 21.639034
v -38.360966 40.478390 21.639034
v -41.639034 40.478390 18.360966
v -38.360966 40.478390 18.360966
v -41.639034 -1.639034 18.360966
v -38.360966 -1.639034 18.360966
v 38.360966 -1.639038 21.639034
v 41.639034 -1.639038 21.639034
v 38.360966 40.478390 21.639034
v 41.639034 40.478390 21.639034
v 38.360966 40.478390 18.360966
v 41.639034 40.478390 18.360966
v 38.360966 -1.639034 18.360966
v 41.639034 -1.639034 18.360966
vt 0.375000 0.000000
vt 0.625000 0.000000
vt 0.625000 0.250000
vt 0.375000 0.250000
vt 0.625000 0.500000
vt 0.375000 0.500000
vt 0.625000 0.750000
vt 0.375000 0.750000
vt 0.625000 1.000000
vt 0.375000 1.000000
vt 0.875000 0.000000
vt 0.875000 0.250000
vt 0.125000 0.000000
vt 0.125000 0.250000
vt 0.205080 0.420621
vt 0.205080 0.001992
vt 0.280180 0.001992
vt 0.280180 0.420621
vt 0.474547 0.811432
vt 0.474547 0.424201
vt 0.635013 0.424201
vt 0.635013 0.811432
vt 0.286880 0.420621
vt 0.286880 0.001992
vt 0.361980 0.001992
vt 0.361980 0.420621
vt 0.496636 0.420621
vt 0.496636 0.001992
vt 0.705950 0.001992
vt 0.705950 0.420621
vt 0.116832 0.428421
vt 0.217368 0.698063
vt 0.115869 0.703873
vt 0.015333 0.464440
vt 0.213537 0.718575
vt 0.113902 0.985798
vt 0.013314 0.950103
vt 0.112948 0.712817
vt 0.705275 0.842829
vt 0.705275 0.424201
vt 0.719949 0.439899
vt 0.719949 0.827131
vt 0.895089 0.424201
vt 0.880415 0.439899
vt 0.895089 0.842829
vt 0.880415 0.827131
vt 0.640515 0.811432
vt 0.640515 0.424201
vt 0.699772 0.424201
vt 0.699772 0.811432
vt 0.513767 0.819273
vt 0.513746 0.991747
vt 0.407710 0.992505
vt 0.407731 0.820031
vt 0.469044 0.424200
vt 0.469044 0.811432
vt 0.409787 0.811432
vt 0.409787 0.424200
vt 0.529530 0.819344
vt 0.529509 0.991819
vt 0.635545 0.991061
vt 0.635566 0.818587
vt 0.490886 0.001992
vt 0.490886 0.420621
vt 0.391586 0.434069
vt 0.391586 0.698101
vt 0.001787 0.420621
vt 0.001787 0.001992
vt 0.386192 0.718537
vt 0.386192 0.980201
vt 0.719408 0.008090
vt 0.782614 0.008090
vt 0.782614 0.414135
vt 0.719408 0.414135
vt 0.990831 0.426969
vt 0.990831 0.510996
vt 0.909860 0.510996
vt 0.909860 0.426969
vt 0.787737 0.008090
vt 0.850943 0.008090
vt 0.850943 0.414135
vt 0.787737 0.414135
vt 0.990831 0.517608
vt 0.990831 0.601635
vt 0.909860 0.601635
vt 0.909860 0.517608
vt 0.855917 0.008090
vt 0.919123 0.008090
vt 0.919123 0.414135
vt 0.855917 0.414135
vt 0.924097 0.008090
vt 0.987304 0.008090
vt 0.987304 0.414135
vt 0.924097 0.414135
vt 0.719408 0.008090
vt 0.782614 0.008090
vt 0.782614 0.414135
vt 0.719408 0.414135
vt 0.990831 0.426969
vt 0.990831 0.510996
vt 0.909860 0.510996
vt 0.909860 0.426969
vt 0.787737 0.008090
vt 0.850943 0.008090
vt 0.850943 0.414135
vt 0.787737 0.414135
vt 0.990831 0.517608
vt 0.990831 0.601635
vt 0.909860 0.601635
vt 0.909860 0.517608
vt 0.855917 0.008090
vt 0.919123 0.008090
vt 0.919123 0.414135
vt 0.855917 0.414135
vt 0.924097 0.008090
vt 0.987304 0.008090
vt 0.987304 0.414135
vt 0.924097 0.414135
vt 0.719408 0.008090
vt 0.782614 0.008090
vt 0.782614 0.414135
vt 0.719408 0.414135
vt 0.990831 0.426969
vt 0.990831 0.510996
vt 0.909860 0.510996
vt 0.909860 0.426969
vt 0.787737 0.008090
vt 0.850943 0.008090
vt 0.850943 0.414135
vt 0.787737 0.414135
vt 0.990831 0.517608
vt 0.990831 0.601635
vt 0.909860 0.601635
vt 0.909860 0.517608
vt 0.855917 0.008090
vt 0.919123 0.008090
vt 0.919123 0.414135
vt 0.855917 0.414135
vt 0.924097 0.008090
vt 0.987304 0.008090
vt 0.987304 0.414135
vt 0.924097 0.414135
vt 0.719408 0.008090
vt 0.782614 0.008090
vt 0.782614 0.414135
vt 0.719408 0.414135
vt 0.990831 0.426969
vt 0.990831 0.510996
vt 0.909860 0.510996
vt 0.909860 0.426969
vt 0.787737 0.008090
vt 0.850943 0.008090
vt 0.850943 0.414135
vt 0.787737 0.414135
vt 0.990831 0.517608
vt 0.990831 0.601635
vt 0.909860 0.601635
vt 0.909860 0.517608
vt 0.855917 0.008090
vt 0.919123 0.008090
vt 0.919123 0.414135
vt 0.855917 0.414135
vt 0.924097 0.008090
vt 0.987304 0.008090
vt 0.987304 0.414135
vt 0.924097 0.414135
vn 0.000000 0.000000 1.000000
vn 0.000000 0.000000 1.000000
vn 0.000000 0.000000 1.000000
vn 0.000000 0.000000 1.000000
vn 0.000000 1.000000 0.000000
vn 0.000000 1.000000 0.000000
vn 0.000000 1.000000 0.000000
vn 0.000000 1.000000 0.000000
vn 0.000000 0.000000 -1.000000
vn 0.000000 0.000000 -1.000000
vn 0.000000 0.000000 -1.000000
vn 0.000000 0.000000 -1.000000
vn 0.000000 -1.000000 0.000000
vn 0.000000 -1.000000 0.000000
vn 0.000000 -1.000000 0.000000
vn 0.000000 -1.000000 0.000000
vn 1.000000 0.000000 0.000000
vn 1.000000 0.000000 0.000000
vn 1.000000 0.000000 0.000000
vn 1.000000 0.000000 0.000000
vn -1.000000 0.000000 0.000000
vn -1.000000 0.000000 0.000000
vn -1.000000 0.000000 0.000000
vn -1.000000 0.000000 0.000000
vn 0.000000 0.355389 0.934718
vn 0.000000 0.355389 0.934718
vn 0.000000 0.355389 0.934718
vn 0.000000 0.355389 0.934718
vn 0.000000 0.930377 -0.366605
vn 0.000000 0.930377 -0.366605
vn 0.000000 0.930377 -0.366605
vn 0.000000 0.930377 -0.366605
vn 0.000000 -0.061220 -0.998124
vn 0.000000 -0.061220 -0.998124
vn 0.000000 -0.022425 -0.999749
vn 0.000000 -0.022425 -0.999749
vn 0.000000 -1.000000 0.000000
vn 0.000000 -1.000000 0.000000
vn 0.000000 -1.000000 0.000000
vn 0.000000 -1.000000 0.000000
vn 1.000000 0.000000 0.000000
vn 1.000000 0.000000 0.000000
vn 1.000000 -0.000000 0.000000
vn 1.000000 -0.000000 0.000000
vn -1.000000 -0.000000 0.000000
vn -1.000000 -0.000000 0.000000
vn -1.000000 -0.000000 0.000000
vn -1.000000 -0.000000 0.000000
vn 0.000000 0.933466 -0.358667
vn -0.000000 0.933466 -0.358667
vn -0.000000 0.933466 -0.358667
vn 0.000000 0.933466 -0.358667
vn -0.000000 0.933466 -0.358666
vn -0.000000 0.933466 -0.358665
vn 0.000000 0.933466 -0.358665
vn 0.000000 0.933466 -0.358665
vn 0.000000 -0.355389 -0.934718
vn 0.000000 -0.355389 -0.934718
vn 0.000000 -0.355389 -0.934718
vn 0.000000 -0.355389 -0.934718
vn -1.000000 -0.000000 0.000000
vn -1.000000 -0.000000 0.000000
vn -1.000000 -0.000000 0.000000
vn -1.000000 -0.000000 0.000000
vn 0.000000 0.355389 0.934718
vn 0.000000 0.355389 0.934718
vn 0.000000 0.355389 0.934718
vn 0.000000 0.355389 0.934718
vn 1.000000 -0.000000 0.000000
vn 1.000000 -0.000000 0.000000
vn 1.000000 -0.000000 0.000000
vn 1.000000 -0.000000 0.000000
vn 0.000000 0.000236 -1.000000
vn 0.000000 0.000236 -1.000000
vn 1.000000 0.000000 0.000000
vn 1.000000 0.000000 0.000000
vn 0.000000 -0.022019 0.999758
vn 0.000000 -0.022019 0.999758
vn 0.000000 -0.022019 0.999758
vn 0.000000 -0.022019 0.999758
vn -1.000000 0.000000 0.000000
vn -1.000000 0.000000 0.000000
vn 0.000000 0.000000 1.000000
vn 0.000000 0.000000 1.000000
vn 0.000000 0.000000 1.000000
vn 0.000000 0.000000 1.000000
vn 0.000000 1.000000 0.000000
vn 0.000000 1.000000 0.000000
vn 0.000000 1.000000 0.000000
vn 0.000000 1.000000 0.000000
vn 0.000000 0.000000 -1.000000
vn 0.000000 0.000000 -1.000000
vn 0.000000 0.000000 -1.000000
vn 0.000000 0.000000 -1.000000
vn 0.000000 -1.000000 -0.000001
vn 0.000000 -1.000000 -0.000001
vn 0.000000 -1.000000 -0.000001
vn 0.000000 -1.000000 -0.000001
vn 1.000000 0.000000 0.000000
vn 1.000000 0.000000 0.000000
vn 1.000000 0.000000 0.000000
vn 1.000000 0.000000 0.000000
vn -1.000000 0.000000 0.000000
vn -1.000000 0.000000 0.000000
vn -1.000000 0.000000 0.000000
vn -1.000000 0.000000 0.000000
vn 0.000000 0.000000 1.000000
vn 0.000000 0.000000 1.000000
vn 0.000000 0.000000 1.000000
vn 0.000000 0.000000 1.000000
vn 0.000000 1.000000 0.000000
vn 0.000000 1.000000 0.000000
vn 0.000000 1.000000 0.000000
vn 0.000000 1.000000 0.000000
vn 0.000000 0.000000 -1.000000
vn 0.000000 0.000000 -1.000000
vn 0.000000 0.000000 -1.000000
vn 0.000000 0.000000 -1.000000
vn 0.000000 -1.000000 -0.000001
vn 0.000000 -1.000000 -0.000001
vn 0.000000 -1.000000 -0.000001
vn 0.000000 -1.000000 -0.000001
vn 1.000000 0.000000 0.000000
vn 1.000000 0.000000 0.000000
vn 1.000000 0.000000 0.000000
vn 1.000000 0.000000 0.000000
vn -1.000000 0.000000 0.000000
vn -1.000000 0.000000 0.000000
vn -1.000000 0.000000 0.000000
vn -1.000000 0.000000 0.000000
vn 0.000000 0.000000 1.000000
vn 0.000000 0.000000 1.000000
vn 0.000000 0.000000 1.000000
vn 0.000000 0.000000 1.000000
vn 0.000000 1.000000 0.000000
vn 0.000000 1.000000 0.000000
vn 0.000000 1.000000 0.000000
vn 0.000000 1.000000 0.000000
vn 0.000000 0.000000 -1.000000
vn 0.000000 0.000000 -1.000000
vn 0.000000 0.000000 -1.000000
vn 0.000000 0.000000 -1.000000
vn 0.000000 -1.000000 -0.000001
vn 0.000000 -1.000000 -0.000001
vn 0.000000 -1.000000 -0.000001
vn 0.000000 -1.000000 -0.000001
vn 1.000000 0.000000 0.000000
vn 1.000000 0.000000 0.000000
vn 1.000000 0.000000 0.000000
vn 1.000000 0.000000 0.000000
vn -1.000000 0.000000 0.000000
vn -1.000000 0.000000 0.000000
vn -1.000000 0.000000 0.000000
vn -1.000000 0.000000 0.000000
vn 0.000000 0.000000 1.000000
vn 0.000000 0.000000 1.000000
vn 0.000000 0.000000 1.000000
vn 0.000000 0.000000 1.000000
vn 0.000000 1.000000 0.000000
vn 0.000000 1.000000 0.000000
vn 0.000000 1.000000 0.000000
vn 0.000000 1.000000 0.000000
vn 0.000000 0.000000 -1.000000
vn 0.000000 0.000000 -1.000000
vn 0.000000 0.000000 -1.000000
vn 0.000000 0.000000 -1.000000
vn 0.000000 -1.000000 -0.000001
vn 0.000000 -1.000000 -0.000001
vn 0.000000 -1.000000 -0.000001
vn 0.000000 -1.000000 -0.000001
vn 1.000000 0.000000 0.000000
vn 1.000000 0.000000 0.000000
vn 1.000000 0.000000 0.000000
vn 1.000000 0.000000 0.000000
vn -1.000000 0.000000 0.000000
vn -1.000000 0.000000 0.000000
vn -1.000000 0.000000 0.000000
vn -1.000000 0.000000 0.000000
s off
g polySurface11
usemtl initialShadingGroup
f 1/1/1 2/2/2 4/3/3 3/4/4
f 3/4/5 4/3/6 6/5/7 5/6/8
f 5/6/9 6/5/10 8/7/11 7/8/12
f 7/8/13 8/7/14 2/9/15 1/10/16
f 2/2/17 8/11/18 6/12/19 4/3/20
f 7/13/21 1/1/22 3/4/23 5/14/24
f 9/15/25 10/16/26 12/17/27 11/18/28
f 21/19/29 22/20/30 23/21/31 24/22/32
s 1
f 13/23/33 14/24/34 16/25/35 15/26/36
s off
f 25/27/37 26/28/38 27/29/39 28/30/40
s 2
f 10/31/41 16/32/42 14/33/43 12/34/44
s 3
f 15/35/45 9/36/46 11/37/47 13/38/48
s 4
f 11/39/49 12/40/50 18/41/51 17/42/52
f 12/40/50 14/43/53 19/44/54 18/41/51
f 14/43/53 13/45/55 20/46/56 19/44/54
f 13/45/55 11/39/49 17/42/52 20/46/56
s off
f 17/47/57 18/48/58 22/49/59 21/50/60
f 18/51/61 19/52/62 23/53/63 22/54/64
f 19/55/65 20/56/66 24/57/67 23/58/68
f 20/59/69 17/60/70 21/61/71 24/62/72
s 1
f 15/26/36 16/25/35 26/63/73 25/64/74
s 2
f 16/32/42 10/31/41 27/65/75 26/66/76
s off
f 10/16/77 9/15/78 28/67/79 27/68/80
s 3
f 9/36/46 15/35/45 25/69/81 28/70/82
s off
f 29/71/83 30/72/84 32/73/85 31/74/86
f 31/75/87 32/76/88 34/77/89 33/78/90
f 33/79/91 34/80/92 36/81/93 35/82/94
f 35/83/95 36/84/96 30/85/97 29/86/98
f 30/87/99 36/88/100 34/89/101 32/90/102
f 35/91/103 29/92/104 31/93/105 33/94/106
f 37/95/107 38/96/108 40/97/109 39/98/110
f 39/99/111 40/100/112 42/101/113 41/102/114
f 41/103/115 42/104/116 44/105/117 43/106/118
f 43/107/119 44/108/120 38/109/121 37/110/122
f 38/111/123 44/112/124 42/113/125 40/114/126
f 43/115/127 37/116/128 39/117/129 41/118/130
f 45/119/131 46/120/132 48/121/133 47/122/134
f 47/123/135 48/124/136 50/125/137 49/126/138
f 49/127/139 50/128/140 52/129/141 51/130/142
f 51/131/143 52/132/144 46/133/145 45/134/146
f 46/135/147 52/136/148 50/137/149 48/138/150
f 51/139/151 45/140/152 47/141/153 49/142/154
f 53/143/155 54/144/156 56/145/157 55/146/158
f 55/147/159 56/148/160 58/149/161 57/150/162
f 57/151/163 58/152/164 60/153/165 59/154/166
f 59/155/167 60/156/168 54/157/169 53/158/170
f 54/159/171 60/160/172 58/161/173 56/162/174
f 59/163/175 53/164/176 55/165/177 57/166/178
