# This file uses centimeters as units for non-parametric coordinates.

mtllib tile.mtl
g default
v -120.000000 -0.000000 120.000000
v 120.000000 -0.000000 120.000000
v -120.000000 0.000000 -120.000000
v 120.000000 0.000000 -120.000000
v -120.000000 5.000000 120.000000
v 120.000000 5.000000 120.000000
v 120.000000 5.000000 -120.000000
v -120.000000 5.000000 -120.000000
vt 0.032577 0.013669
vt 0.987685 0.033162
vt 0.013086 0.968790
vt 0.968196 0.988279
vt 0.032578 0.033162
vt 0.968193 0.033162
vt 0.968193 0.968788
vt 0.032578 0.968788
vt 0.032578 0.033162
vt 0.968193 0.033162
vt 0.968193 0.968788
vt 0.032578 0.968788
vt 0.032578 0.988278
vt 0.987683 0.968788
vt 0.968193 0.013669
vt 0.013086 0.033162
vn 0.000000 1.000000 0.000000
vn 0.000000 1.000000 0.000000
vn 0.000000 1.000000 0.000000
vn 0.000000 1.000000 0.000000
vn 0.000000 -1.000000 -0.000000
vn 0.000000 -1.000000 -0.000000
vn 0.000000 -1.000000 -0.000000
vn 0.000000 -1.000000 -0.000000
vn 0.000000 0.000000 1.000000
vn 0.000000 0.000000 1.000000
vn 0.000000 0.000000 1.000000
vn 0.000000 0.000000 1.000000
vn 1.000000 0.000000 0.000000
vn 1.000000 0.000000 0.000000
vn 1.000000 0.000000 0.000000
vn 1.000000 0.000000 0.000000
vn 0.000000 0.000000 -1.000000
vn 0.000000 0.000000 -1.000000
vn 0.000000 0.000000 -1.000000
vn 0.000000 0.000000 -1.000000
vn -1.000000 0.000000 0.000000
vn -1.000000 0.000000 0.000000
vn -1.000000 0.000000 0.000000
vn -1.000000 0.000000 0.000000
s off
g pPlane1
usemtl initialShadingGroup
f 5/9/1 6/10/2 7/11/3 8/12/4
f 1/5/5 3/8/6 4/7/7 2/6/8
f 1/1/9 2/15/10 6/10/11 5/9/12
f 2/2/13 4/14/14 7/11/15 6/10/16
f 4/4/17 3/13/18 8/12/19 7/11/20
f 3/3/21 1/16/22 5/9/23 8/12/24
