# This file uses centimeters as units for non-parametric coordinates.

mtllib medbox.mtl
g default
v -93.194672 78.283539 93.194672
v 93.194672 78.283539 93.194672
v -93.194672 78.283539 -93.194672
v 93.194672 78.283539 -93.194672
v -93.194672 0.000000 -93.194672
v 93.194672 0.000000 -93.194672
v -37.277863 0.000000 93.194672
v -37.277863 78.283539 93.194672
v 37.277866 0.000000 93.194672
v 37.277866 78.283539 93.194672
v -37.277863 78.283539 61.881256
v 93.194672 0.000000 93.194672
v 37.277863 0.000000 61.881256
v -93.194672 0.000000 93.194672
v -37.277863 46.970123 85.739090
v -37.277866 31.313417 85.739090
v -37.277866 0.000000 61.881256
v 37.277870 78.283539 61.881256
v 37.277866 46.970123 85.739090
v 37.277863 31.313417 85.739090
v -37.277870 31.313417 73.810181
v -37.277863 46.970123 73.810181
v 37.277863 31.313417 73.810181
v 37.277870 46.970123 73.810181
v -37.277866 62.626835 93.194672
v -37.277863 62.626835 61.881256
v 37.277863 62.626835 93.194672
v 37.277870 62.626835 61.881256
v 93.194672 62.626835 93.194672
v 93.194672 62.626835 -93.194672
v -93.194672 62.626835 -93.194672
v -93.194672 62.626835 93.194672
v -37.277866 64.192505 93.194672
v -93.194672 64.192505 93.194672
v -93.194672 64.192505 -93.194672
v 93.194672 64.192505 -93.194672
v 93.194672 64.192505 93.194672
v 37.277863 64.192505 93.194672
v 37.277870 64.192505 61.881256
v -37.277863 64.192505 61.881256
v -86.369148 62.626835 86.369148
v -44.103390 62.626835 86.369148
v -44.103390 64.192505 86.369148
v -86.369148 64.192505 86.369148
v -44.103390 62.626835 55.055733
v 44.103394 62.626835 55.055733
v 44.103394 64.192505 55.055733
v -44.103390 64.192505 55.055733
v 86.369148 62.626835 86.369148
v 86.369148 62.626835 -86.369148
v 86.369148 64.192505 -86.369148
v 86.369148 64.192505 86.369148
v -86.369148 62.626835 -86.369148
v -86.369148 64.192505 -86.369148
v 44.103390 62.626835 86.369148
v 44.103390 64.192505 86.369148
v 0.000000 0.000000 -93.194672
v 0.000000 62.626835 -93.194672
v 0.000000 62.626835 -86.369148
v 0.000000 64.192505 -86.369148
v 0.000000 64.192505 -93.194672
v 0.000000 78.283539 -93.194672
v 0.000003 78.283539 61.881256
v 0.000003 64.192505 61.881256
v 0.000003 64.192505 55.055733
v 0.000003 62.626835 55.055733
v 0.000003 62.626835 61.881256
v -0.000001 0.000000 61.881256
vt 0.524226 0.024197
vt 0.659675 0.399918
vt 0.524197 0.475774
vt 0.024202 0.024227
vt 0.159694 0.399927
vt 0.024227 0.475798
vt 0.659670 0.475783
vt 0.340327 0.475781
vt 0.340322 0.399917
vt 0.475798 0.475773
vt 0.580951 0.863044
vt 0.580951 0.936956
vt 0.572152 0.918478
vt 0.572152 0.900000
vt 0.543995 0.936956
vt 0.558073 0.918478
vt 0.379742 0.971677
vt 0.423703 0.971677
vt 0.423703 0.973772
vt 0.379742 0.973772
vt 0.499676 0.973772
vt 0.499676 0.971677
vt 0.548614 0.971677
vt 0.548614 0.973772
vt 0.543995 0.863044
vt 0.558073 0.900000
vt 0.646943 0.863044
vt 0.646943 0.936956
vt 0.620180 0.971677
vt 0.810008 0.971677
vt 0.810008 0.973772
vt 0.620180 0.973772
vt 0.904898 0.971677
vt 0.904898 0.973772
vt 0.189898 0.973772
vt 0.189898 0.971677
vt 0.975774 0.475803
vt 0.840301 0.475794
vt 0.840306 0.399929
vt 0.159698 0.475791
vt 0.543995 0.936956
vt 0.558073 0.918478
vt 0.346477 0.573935
vt 0.346479 0.509455
vt 0.653527 0.509464
vt 0.653525 0.573944
vt 0.346474 0.687543
vt 0.346476 0.623063
vt 0.653524 0.623072
vt 0.653522 0.687552
vt 0.653521 0.736680
vt 0.346472 0.736671
vt 0.451731 0.971677
vt 0.451731 0.973772
vt 0.456005 0.863044
vt 0.441927 0.900000
vt 0.427848 0.900000
vt 0.419049 0.863044
vt 0.419049 0.936956
vt 0.427848 0.918478
vt 0.441927 0.918478
vt 0.456005 0.936956
vt 0.456005 0.936956
vt 0.441927 0.918478
vt 0.575936 0.971677
vt 0.575936 0.973772
vt 0.866918 0.863044
vt 0.866918 0.936956
vt 0.976906 0.863044
vt 0.976906 0.936956
vt 0.353057 0.936956
vt 0.133082 0.936956
vt 0.133082 0.863044
vt 0.353057 0.863044
vt 0.500000 0.936956
vt 0.500000 0.863044
vt 0.353057 0.792992
vt 0.419049 0.792992
vt 0.419049 0.807008
vt 0.353057 0.807008
vt 0.133082 0.807008
vt 0.133082 0.792992
vt 0.976906 0.792992
vt 0.976906 0.807008
vt 0.866918 0.807008
vt 0.866918 0.792992
vt 0.646943 0.792992
vt 0.646943 0.807008
vt 0.580951 0.792992
vt 0.580951 0.807008
vt 0.543995 0.792992
vt 0.543995 0.807008
vt 0.500000 0.807008
vt 0.500000 0.792992
vt 0.456005 0.792992
vt 0.456005 0.807008
vt 0.379742 0.962546
vt 0.423703 0.962546
vt 0.423703 0.982898
vt 0.379742 0.982898
vt 0.499676 0.962545
vt 0.548614 0.962546
vt 0.548614 0.982898
vt 0.499676 0.982898
vt 0.620180 0.962546
vt 0.810008 0.962546
vt 0.810008 0.982898
vt 0.620180 0.982898
vt 0.904898 0.962546
vt 0.904898 0.982898
vt 0.189898 0.982898
vt 0.189898 0.962546
vt 0.451731 0.962546
vt 0.451731 0.982898
vt 0.575936 0.962546
vt 0.575936 0.982898
vt 0.475773 0.024202
vt 0.250008 0.399922
vt 0.249987 0.024215
vt 0.975803 0.024226
vt 0.750015 0.024212
vt 0.749990 0.399924
vt 0.023094 0.936956
vt 0.023094 0.863044
vt 0.094621 0.971677
vt 0.094621 0.962546
vt 0.094621 0.973772
vt 0.094621 0.982898
vt 0.023094 0.807008
vt 0.023094 0.792992
vn 0.000000 1.000000 0.000000
vn 0.000000 1.000000 0.000000
vn 0.000000 1.000000 0.000000
vn 0.000000 -1.000000 0.000000
vn 0.000000 -1.000000 0.000000
vn 0.000000 -1.000000 0.000000
vn 0.000000 1.000000 0.000000
vn 0.000000 1.000000 0.000000
vn 0.000000 1.000000 0.000001
vn 0.000000 -1.000000 0.000000
vn 0.000000 -1.000000 0.000000
vn 0.000000 -1.000000 0.000000
vn -1.000000 0.000000 0.000000
vn -1.000000 0.000000 0.000000
vn -1.000000 0.000000 0.000000
vn -1.000000 0.000000 0.000000
vn -1.000000 0.000000 0.000000
vn -1.000000 0.000000 0.000000
vn -1.000000 0.000000 0.000000
vn -1.000000 0.000000 0.000000
vn 0.000000 0.000000 1.000000
vn 0.000000 0.000000 1.000000
vn 0.000000 0.000000 1.000000
vn 0.000000 0.000000 1.000000
vn 0.000000 0.000000 1.000000
vn 0.000000 0.000000 1.000000
vn 0.000000 0.000000 1.000000
vn 0.000000 0.000000 1.000000
vn -1.000000 0.000000 0.000000
vn -1.000000 0.000000 0.000000
vn -1.000000 0.000000 0.000000
vn -1.000000 0.000000 -0.000000
vn 0.000000 0.000000 1.000000
vn 0.000000 0.000000 1.000000
vn 0.000000 0.000000 1.000000
vn 0.000000 0.000000 1.000000
vn 1.000000 0.000000 0.000000
vn 1.000000 0.000000 0.000000
vn 1.000000 0.000000 0.000000
vn 1.000000 0.000000 0.000000
vn 0.000000 0.000000 -1.000000
vn 0.000000 0.000000 -1.000000
vn 0.000000 0.000000 -1.000000
vn 0.000000 0.000000 -1.000000
vn -1.000000 0.000000 0.000000
vn -1.000000 0.000000 0.000000
vn -1.000000 0.000000 0.000000
vn -1.000000 0.000000 0.000000
vn 0.000000 1.000000 0.000000
vn 0.000000 1.000000 0.000000
vn 0.000000 1.000000 0.000000
vn 0.000000 -1.000000 0.000000
vn 0.000000 -1.000000 0.000000
vn 0.000000 -1.000000 0.000000
vn -1.000000 0.000000 -0.000000
vn -1.000000 0.000000 0.000000
vn -1.000000 0.000000 -0.000000
vn -1.000000 0.000000 -0.000000
vn 0.000000 0.000000 -1.000000
vn 0.000000 0.000000 -1.000000
vn 0.000000 0.000000 -1.000000
vn 0.000000 0.000000 -1.000000
vn 0.000000 0.000000 1.000000
vn 0.000000 0.000000 1.000000
vn 0.000000 0.000000 1.000000
vn 0.000000 0.000000 1.000000
vn 0.000000 1.000000 0.000000
vn 0.000000 1.000000 0.000000
vn 0.000000 1.000000 0.000000
vn 0.000000 1.000000 0.000000
vn 0.000000 -1.000000 0.000000
vn 0.000000 -1.000000 0.000000
vn 0.000000 -1.000000 0.000000
vn 0.000000 -1.000000 0.000000
vn 1.000000 0.000000 0.000000
vn 1.000000 0.000000 0.000000
vn 1.000000 0.000000 0.000000
vn 1.000000 0.000000 0.000000
vn 1.000000 0.000000 0.000000
vn 1.000000 -0.000000 0.000000
vn 1.000000 0.000000 0.000000
vn 1.000000 0.000000 0.000000
vn 1.000000 0.000000 0.000000
vn 1.000000 0.000000 0.000000
vn 1.000000 0.000000 0.000000
vn 1.000000 0.000000 0.000000
vn 1.000000 0.000000 0.000000
vn 1.000000 0.000000 0.000000
vn 1.000000 0.000000 0.000000
vn 1.000000 0.000000 0.000000
vn 1.000000 0.000000 0.000000
vn 1.000000 -0.000000 0.000000
vn 1.000000 -0.000000 0.000000
vn 1.000000 -0.000000 0.000000
vn -1.000000 0.000000 -0.000000
vn -1.000000 0.000000 -0.000000
vn -1.000000 0.000000 -0.000000
vn -1.000000 0.000000 -0.000000
vn 1.000000 0.000000 0.000000
vn 1.000000 0.000000 0.000000
vn 1.000000 0.000000 0.000000
vn 1.000000 0.000000 0.000000
vn 0.000000 0.000000 -1.000000
vn 0.000000 0.000000 -1.000000
vn 0.000000 0.000000 -1.000000
vn 0.000000 0.000000 -1.000000
vn -1.000000 0.000000 0.000000
vn -1.000000 0.000000 0.000000
vn -1.000000 0.000000 0.000000
vn -1.000000 0.000000 0.000000
vn 0.000000 0.000000 1.000000
vn 0.000000 0.000000 1.000000
vn 0.000000 0.000000 1.000000
vn 0.000000 0.000000 1.000000
vn 0.000000 0.000000 1.000000
vn 0.000000 0.000000 1.000000
vn 0.000000 0.000000 1.000000
vn 0.000000 0.000000 1.000000
vn 0.000000 0.000000 1.000000
vn 0.000000 0.000000 1.000000
vn 0.000000 0.000000 1.000000
vn 0.000000 0.000000 1.000000
vn 0.000000 0.000000 1.000000
vn 0.000000 0.000000 1.000000
vn 0.000000 0.000000 1.000000
vn 0.000000 0.000000 1.000000
vn -1.000000 0.000000 0.000000
vn -1.000000 0.000000 0.000000
vn -1.000000 0.000000 0.000000
vn -1.000000 0.000000 0.000000
vn 0.000000 0.000000 -1.000000
vn 0.000000 0.000000 -1.000000
vn 0.000000 0.000000 -1.000000
vn 0.000000 0.000000 -1.000000
vn 1.000000 0.000000 0.000000
vn 1.000000 0.000000 0.000000
vn 1.000000 0.000000 0.000000
vn 1.000000 0.000000 0.000000
vn 0.000000 0.000000 1.000000
vn 0.000000 0.000000 1.000000
vn 0.000000 0.000000 1.000000
vn 0.000000 0.000000 1.000000
vn -1.000000 0.000000 -0.000000
vn -1.000000 0.000000 -0.000000
vn -1.000000 0.000000 -0.000000
vn -1.000000 0.000000 -0.000000
vn 0.000000 0.000000 1.000000
vn 0.000000 0.000000 1.000000
vn 0.000000 0.000000 1.000000
vn 0.000000 0.000000 1.000000
vn 1.000000 0.000000 0.000000
vn 1.000000 0.000000 0.000000
vn 1.000000 0.000000 0.000000
vn 1.000000 0.000000 0.000000
vn 0.000000 1.000000 0.000000
vn 0.000000 1.000000 0.000000
vn 0.000000 1.000000 0.000000
vn 0.000000 1.000000 0.000000
vn 0.000000 -1.000000 0.000000
vn 0.000000 -1.000000 0.000000
vn 0.000000 -1.000000 0.000000
vn 0.000000 -1.000000 0.000000
vn 0.000000 1.000000 0.000000
vn 0.000000 1.000000 0.000000
vn 0.000000 1.000000 0.000000
vn 0.000000 1.000000 0.000000
vn 0.000000 -1.000000 0.000000
vn 0.000000 -1.000000 0.000000
vn 0.000000 -1.000000 0.000000
vn 0.000000 -1.000000 0.000000
vn 0.000000 1.000000 0.000000
vn 0.000000 1.000000 0.000000
vn 0.000000 1.000000 0.000000
vn 0.000000 1.000000 0.000000
vn 0.000000 -1.000000 0.000000
vn 0.000000 -1.000000 0.000000
vn 0.000000 -1.000000 0.000000
vn 0.000000 -1.000000 0.000000
vn 0.000000 1.000000 0.000000
vn 0.000000 1.000000 0.000000
vn 0.000000 1.000000 0.000000
vn 0.000000 1.000000 0.000000
vn 0.000000 -1.000000 0.000000
vn 0.000000 -1.000000 0.000000
vn 0.000000 -1.000000 0.000000
vn 0.000000 -1.000000 0.000000
vn 0.000000 -1.000000 0.000000
vn 0.000000 -1.000000 0.000000
vn 0.000000 -1.000000 0.000000
vn 0.000000 -1.000000 0.000000
vn 0.000000 1.000000 0.000000
vn 0.000000 1.000000 0.000000
vn 0.000000 1.000000 0.000000
vn 0.000000 1.000000 0.000000
vn 0.000000 1.000000 0.000000
vn 0.000000 1.000000 0.000000
vn 0.000000 1.000000 0.000000
vn 0.000000 1.000000 0.000000
vn 0.000000 -1.000000 0.000000
vn 0.000000 -1.000000 0.000000
vn 0.000000 -1.000000 0.000000
vn 0.000000 -1.000000 0.000000
vn 0.000000 1.000000 0.000000
vn 0.000000 1.000000 0.000000
vn 0.000000 1.000000 0.000000
vn 0.000000 1.000000 0.000000
vn 0.000000 -1.000000 0.000000
vn 0.000000 -1.000000 0.000000
vn 0.000000 -1.000000 0.000000
vn 0.000000 -1.000000 0.000000
vn 0.000000 1.000000 0.000000
vn 0.000000 1.000000 0.000000
vn 0.000000 1.000000 0.000000
vn 0.000000 1.000000 0.000000
vn 0.000000 -1.000000 0.000000
vn 0.000000 -1.000000 0.000000
vn 0.000000 -1.000000 0.000000
vn 0.000000 -1.000000 0.000000
vn 0.000000 -1.000000 0.000000
vn 0.000000 -1.000000 0.000000
vn 0.000000 -1.000000 0.000000
vn 0.000000 -1.000000 0.000000
vn 0.000000 -1.000000 0.000000
vn 0.000000 -1.000000 0.000000
vn 0.000000 -1.000000 0.000000
vn 0.000000 1.000000 0.000000
vn 0.000000 1.000000 0.000000
vn 0.000000 1.000000 0.000000
vn 0.000000 1.000000 0.000000
vn 0.000000 1.000000 0.000000
vn 0.000000 1.000000 0.000000
vn 0.000000 1.000000 0.000000
vn 0.000000 0.000000 -1.000000
vn 0.000000 0.000000 -1.000000
vn 0.000000 0.000000 -1.000000
vn 0.000000 0.000000 -1.000000
vn 0.000000 1.000000 0.000000
vn 0.000000 1.000000 0.000000
vn 0.000000 1.000000 0.000000
vn 0.000000 1.000000 0.000000
vn 0.000000 0.000000 -1.000000
vn 0.000000 0.000000 -1.000000
vn 0.000000 0.000000 -1.000000
vn 0.000000 0.000000 -1.000000
vn 0.000000 -1.000000 0.000000
vn 0.000000 -1.000000 0.000000
vn 0.000000 -1.000000 0.000000
vn 0.000000 -1.000000 0.000000
vn 0.000000 0.000000 -1.000000
vn 0.000000 0.000000 -1.000000
vn 0.000000 0.000000 -1.000000
vn 0.000000 0.000000 -1.000000
vn 0.000000 1.000000 0.000000
vn 0.000000 1.000000 0.000000
vn 0.000000 1.000000 0.000000
vn 0.000000 1.000000 0.000000
vn 0.000000 0.000000 1.000000
vn 0.000000 0.000000 1.000000
vn 0.000000 0.000000 1.000000
vn 0.000000 0.000000 1.000000
vn 0.000000 -1.000000 0.000000
vn 0.000000 -1.000000 0.000000
vn 0.000000 -1.000000 0.000000
vn 0.000000 -1.000000 0.000000
vn 0.000000 0.000000 1.000000
vn 0.000000 0.000000 1.000000
vn 0.000000 0.000000 1.000000
vn 0.000000 0.000000 1.000000
vn 0.000000 1.000000 0.000000
vn 0.000000 1.000000 0.000000
vn 0.000000 1.000000 0.000000
vn 0.000000 1.000000 0.000000
vn 0.000000 0.000000 1.000000
vn 0.000000 0.000000 1.000000
vn 0.000000 0.000000 1.000000
vn 0.000000 0.000000 1.000000
vn 0.000000 -1.000000 0.000000
vn 0.000000 -1.000000 0.000000
vn 0.000000 -1.000000 0.000000
vn 0.000000 -1.000000 0.000000
s off
g itemPickups:supply_firstAid_GEO group
usemtl itemPickups:phong5SG
f 4/1/1 18/2/2 2/3/3
f 5/4/4 17/5/5 14/6/6
f 2/3/7 18/2/8 10/7/9
f 9/8/10 13/9/11 12/10/12
f 9/11/13 27/12/14 19/13/15 20/14/16
f 19/13/17 27/12/18 28/15/19 24/16/20
f 41/17/21 42/18/22 43/19/23 44/20/24
f 65/21/25 66/22/26 46/23/27 47/24/28
f 13/25/29 9/11/30 20/14/31 23/26/32
f 9/11/33 12/27/34 29/28/35 27/12/36
f 49/29/37 50/30/38 51/31/39 52/32/40
f 51/31/41 50/30/42 59/33/43 60/34/44
f 44/20/45 54/35/46 53/36/47 41/17/48
f 1/37/49 8/38/50 11/39/51
f 14/6/52 17/5/53 7/40/54
f 28/41/55 13/25/56 23/26/57 24/42/58
f 21/43/59 22/44/60 24/45/61 23/46/62
f 15/47/63 16/48/64 20/49/65 19/50/66
f 24/51/67 22/52/68 15/47/69 19/50/70
f 21/43/71 23/46/72 20/49/73 16/48/74
f 42/18/75 45/53/76 48/54/77 43/19/78
f 17/55/79 21/56/80 16/57/81 7/58/82
f 25/59/83 7/58/84 16/57/85 15/60/86
f 15/60/87 22/61/88 26/62/89 25/59/90
f 17/55/91 26/63/92 22/64/93 21/56/94
f 46/23/95 55/65/96 56/66/97 47/24/98
f 12/27/99 6/67/100 30/68/101 29/28/102
f 30/68/103 6/67/104 57/69/105 58/70/106
f 32/71/107 31/72/108 5/73/109 14/74/110
f 14/74/111 7/58/112 25/59/113 32/71/114
f 55/65/115 49/29/116 52/32/117 56/66/118
f 67/75/119 68/76/120 13/25/121 28/41/122
f 34/77/123 33/78/124 8/79/125 1/80/126
f 3/81/127 35/82/128 34/77/129 1/80/130
f 61/83/131 62/84/132 4/85/133 36/86/134
f 37/87/135 36/86/136 4/85/137 2/88/138
f 38/89/139 37/87/140 2/88/141 10/90/142
f 39/91/143 38/89/144 10/90/145 18/92/146
f 63/93/147 64/94/148 39/91/149 18/92/150
f 33/78/151 40/95/152 11/96/153 8/79/154
f 32/97/155 25/98/156 42/18/157 41/17/158
f 33/99/159 34/100/160 44/20/161 43/19/162
f 66/22/163 67/101/164 28/102/165 46/23/166
f 39/103/167 64/104/168 65/21/169 47/24/170
f 29/105/171 30/106/172 50/30/173 49/29/174
f 36/107/175 37/108/176 52/32/177 51/31/178
f 50/30/179 30/106/180 58/109/181 59/33/182
f 51/31/183 60/34/184 61/110/185 36/107/186
f 34/100/187 35/111/188 54/35/189 44/20/190
f 31/112/191 32/97/192 41/17/193 53/36/194
f 25/98/195 26/113/196 45/53/197 42/18/198
f 40/114/199 33/99/200 43/19/201 48/54/202
f 28/102/203 27/115/204 55/65/205 46/23/206
f 38/116/207 39/103/208 47/24/209 56/66/210
f 27/115/211 29/105/212 49/29/213 55/65/214
f 37/108/215 38/116/216 56/66/217 52/32/218
f 6/117/219 13/9/220 68/118/221 57/119/222
f 6/117/223 12/10/224 13/9/225
f 3/120/226 1/37/227 11/39/228
f 62/121/229 63/122/230 18/2/231 4/1/232
f 58/123/233 57/124/234 5/73/235 31/72/236
f 59/125/237 58/126/238 31/112/239 53/36/240
f 60/127/241 59/125/242 53/36/243 54/35/244
f 61/128/245 60/127/246 54/35/247 35/111/248
f 3/81/249 62/129/250 61/130/251 35/82/252
f 3/120/253 11/39/254 63/122/255 62/121/256
f 40/95/257 64/94/258 63/93/259 11/96/260
f 65/21/261 64/104/262 40/114/263 48/54/264
f 45/53/265 66/22/266 65/21/267 48/54/268
f 26/113/269 67/101/270 66/22/271 45/53/272
f 17/55/273 68/76/274 67/75/275 26/63/276
f 57/119/277 68/118/278 17/5/279 5/4/280
